<svg width="50" height="43" viewBox="0 0 50 43" fill="none" xmlns="http://www.w3.org/2000/svg">
<path d="M46.2651 21.6847C46.2651 33.2827 36.7943 42.6847 25.1116 42.6847C13.4288 42.6847 3.95802 33.2827 3.95802 21.6847C3.95802 10.0867 13.4288 0.684692 25.1116 0.684692C36.7943 0.684692 46.2651 10.0867 46.2651 21.6847Z" fill="#1E1E1E"/>
<path d="M21.3436 4.68782C22.9136 3.5886 24.4836 3.03899 26.0535 3.03899C27.8714 3.03899 29.2183 4.03977 30.0942 6.04133C30.8048 7.66555 31.408 9.82297 31.9038 12.5136C32.4161 15.2042 32.8375 17.4355 33.1681 19.2073C33.9944 23.637 35.1016 27.7714 36.4898 31.6105C40.7866 15.6472 43.0177 6.84524 43.1829 5.20461C43.216 4.94211 43.2325 4.50735 43.2325 3.90032C43.2325 3.29329 43.0838 2.76829 42.7863 2.32532C42.7863 2.16125 43.0259 2.0136 43.5052 1.88235C43.9845 1.73469 44.472 1.66086 44.9678 1.66086C46.4717 1.66086 47.6863 2.13665 48.6118 3.08821C49.5373 4.03977 50 5.04055 50 6.09055C50 7.14055 49.7769 8.51047 49.3307 10.2003C48.8845 11.8902 48.1325 14.105 47.0749 16.8448C46.0172 19.5847 45.1413 21.7995 44.4472 23.4894C43.7531 25.1792 42.6045 27.8863 41.0015 31.6105C39.415 35.3183 38.4151 37.6562 38.002 38.6241C37.4236 38.739 36.7212 38.7964 35.8949 38.7964C35.0851 38.7964 34.2919 38.6816 33.5151 38.4519C32.7549 38.2386 32.2343 37.9433 31.9534 37.5659C31.5733 37.0245 30.5982 33.8499 29.0283 28.0421C27.4583 22.2179 26.4584 18.6823 26.0288 17.4355C25.5991 18.2886 25.0454 20.1589 24.3679 23.0464C23.6903 25.9339 22.9714 28.9281 22.2112 32.0288C21.451 35.1296 20.7569 37.328 20.1289 38.6241C19.5505 38.739 18.8647 38.7964 18.0714 38.7964C17.2781 38.7964 16.5179 38.6816 15.7908 38.4519C15.0636 38.2386 14.5761 37.9597 14.3282 37.6152C14.0803 37.2542 13.4606 35.5316 12.469 32.4472C11.4774 29.3464 10.428 26.0488 9.32077 22.5542C8.21352 19.0433 7.00711 15.721 5.70154 12.5874C4.41249 9.43743 3.37134 7.61633 2.57809 7.12415C2.28061 6.94368 1.99141 6.84524 1.71046 6.82883C1.44604 6.81243 1.18162 6.79602 0.917204 6.77961C0.652785 6.76321 0.47926 6.755 0.396629 6.755C0.13221 6.11516 0 5.63118 0 5.30305C0 4.95852 0.0082631 4.73704 0.0247893 4.6386C2.42109 3.30969 5.2388 2.64524 8.47794 2.64524C9.03983 2.64524 9.45298 2.65344 9.7174 2.66985C10.0479 3.01438 10.6181 4.53196 11.4279 7.22258C12.2376 9.8968 13.3614 13.7933 14.7992 18.912C16.2535 24.0308 17.5095 28.3128 18.5672 31.7581C20.8643 21.1761 22.6078 14.2034 23.7977 10.8402C23.1036 8.92063 22.2856 6.86985 21.3436 4.68782Z" fill="#F5F5F5"/>
</svg>

