<svg width="96" height="80" viewBox="0 0 96 80" fill="none" xmlns="http://www.w3.org/2000/svg">
<path d="M88 40C88 62.0914 70.0914 80 48 80C25.9086 80 8 62.0914 8 40C8 17.9086 25.9086 0 48 0C70.0914 0 88 17.9086 88 40Z" fill="#F97316"/>
<path d="M40.875 7.625C43.8438 5.53125 46.8125 4.48438 49.7812 4.48438C53.2188 4.48438 55.7656 6.39062 57.4219 10.2031C58.7656 13.2969 59.9062 17.4062 60.8438 22.5312C61.8125 27.6562 62.6094 31.9062 63.2344 35.2812C64.7969 43.7188 66.8906 51.5938 69.5156 58.9062C77.6406 28.5 81.8594 11.7344 82.1719 8.60938C82.2344 8.10938 82.2656 7.28125 82.2656 6.125C82.2656 4.96875 81.9844 3.96875 81.4219 3.125C81.4219 2.8125 81.875 2.53125 82.7812 2.28125C83.6875 2 84.6094 1.85938 85.5469 1.85938C88.3906 1.85938 90.6875 2.76562 92.4375 4.57812C94.1875 6.39062 95.0625 8.29688 95.0625 10.2969C95.0625 12.2969 94.6406 14.9062 93.7969 18.125C92.9531 21.3438 91.5312 25.5625 89.5312 30.7812C87.5312 36 85.875 40.2188 84.5625 43.4375C83.25 46.6562 81.0781 51.8125 78.0469 58.9062C75.0469 65.9688 73.1562 70.4219 72.375 72.2656C71.2812 72.4844 69.9531 72.5938 68.3906 72.5938C66.8594 72.5938 65.3594 72.375 63.8906 71.9375C62.4531 71.5312 61.4688 70.9688 60.9375 70.25C60.2188 69.2188 58.375 63.1719 55.4062 52.1094C52.4375 41.0156 50.5469 34.2812 49.7344 31.9062C48.9219 33.5312 47.875 37.0938 46.5938 42.5938C45.3125 48.0938 43.9531 53.7969 42.5156 59.7031C41.0781 65.6094 39.7656 69.7969 38.5781 72.2656C37.4844 72.4844 36.1875 72.5938 34.6875 72.5938C33.1875 72.5938 31.75 72.375 30.375 71.9375C29 71.5312 28.0781 71 27.6094 70.3438C27.1406 69.6562 25.9688 66.375 24.0938 60.5C22.2188 54.5938 20.2344 48.3125 18.1406 41.6562C16.0469 34.9688 13.7656 28.6406 11.2969 22.6719C8.85938 16.6719 6.89062 13.2031 5.39062 12.2656C4.82812 11.9219 4.28125 11.7344 3.75 11.7031C3.25 11.6719 2.75 11.6406 2.25 11.6094C1.75 11.5781 1.42188 11.5625 1.26562 11.5625C0.765625 10.3438 0.515625 9.42188 0.515625 8.79688C0.515625 8.14062 0.53125 7.71875 0.5625 7.53125C5.09375 5 10.4219 3.73438 16.5469 3.73438C17.6094 3.73438 18.3906 3.75 18.8906 3.78125C19.5156 4.4375 20.5938 7.32812 22.125 12.4531C23.6562 17.5469 25.7812 24.9688 28.5 34.7188C31.25 44.4688 33.625 52.625 35.625 59.1875C39.9688 39.0312 43.2656 25.75 45.5156 19.3438C44.2031 15.6875 42.6562 11.7812 40.875 7.625Z" fill="#1E1E1E"/>
</svg>

