<svg width="18" height="19" viewBox="0 0 18 19" fill="none" xmlns="http://www.w3.org/2000/svg">
<path d="M16.6 18.3843L10.3 12.0843C9.8 12.4843 9.225 12.8009 8.575 13.0343C7.925 13.2676 7.23333 13.3843 6.5 13.3843C4.68333 13.3843 3.14583 12.7551 1.8875 11.4968C0.629167 10.2384 0 8.70094 0 6.88428C0 5.06761 0.629167 3.53011 1.8875 2.27178C3.14583 1.01344 4.68333 0.384277 6.5 0.384277C8.31667 0.384277 9.85417 1.01344 11.1125 2.27178C12.3708 3.53011 13 5.06761 13 6.88428C13 7.61761 12.8833 8.30928 12.65 8.95928C12.4167 9.60928 12.1 10.1843 11.7 10.6843L18 16.9843L16.6 18.3843ZM6.5 11.3843C7.75 11.3843 8.8125 10.9468 9.6875 10.0718C10.5625 9.19678 11 8.13428 11 6.88428C11 5.63428 10.5625 4.57178 9.6875 3.69678C8.8125 2.82178 7.75 2.38428 6.5 2.38428C5.25 2.38428 4.1875 2.82178 3.3125 3.69678C2.4375 4.57178 2 5.63428 2 6.88428C2 8.13428 2.4375 9.19678 3.3125 10.0718C4.1875 10.9468 5.25 11.3843 6.5 11.3843Z" fill="#686868"/>
</svg>

