<svg width="19" height="17" viewBox="0 0 19 17" fill="none" xmlns="http://www.w3.org/2000/svg">
<path d="M13.0813 3.09738L15.9 5.91668C16.0187 6.03546 16.0187 6.22924 15.9 6.34802L9.075 13.1744L6.175 13.4963C5.7875 13.54 5.45937 13.2119 5.50313 12.8243L5.825 9.92372L12.65 3.09738C12.7688 2.97861 12.9625 2.97861 13.0813 3.09738ZM18.1437 2.38162L16.6187 0.85632C16.1437 0.381227 15.3719 0.381227 14.8938 0.85632L13.7875 1.96279C13.6688 2.08156 13.6688 2.27535 13.7875 2.39412L16.6063 5.21342C16.725 5.33219 16.9188 5.33219 17.0375 5.21342L18.1437 4.10695C18.6187 3.62874 18.6187 2.85671 18.1437 2.38162ZM12.5 11.3177V14.4996H2.5V4.49766H9.68125C9.78125 4.49766 9.875 4.45702 9.94687 4.38826L11.1969 3.13802C11.4344 2.90047 11.2656 2.49727 10.9312 2.49727H2C1.17188 2.49727 0.5 3.16927 0.5 3.99756V14.9997C0.5 15.828 1.17188 16.5 2 16.5H13C13.8281 16.5 14.5 15.828 14.5 14.9997V10.0675C14.5 9.73305 14.0969 9.5674 13.8594 9.80182L12.6094 11.0521C12.5406 11.124 12.5 11.2177 12.5 11.3177Z" fill="white"/>
</svg>
