<svg width="18" height="19" viewBox="0 0 18 19" fill="none" xmlns="http://www.w3.org/2000/svg">
<path d="M13.8212 12.5536C13.2486 12.5536 12.7203 12.7545 12.3064 13.09L8.14392 10.0786C8.21362 9.69601 8.21362 9.304 8.14392 8.92143L12.3064 5.91004C12.7203 6.24554 13.2486 6.44643 13.8212 6.44643C15.1511 6.44643 16.2319 5.36563 16.2319 4.03571C16.2319 2.7058 15.1511 1.625 13.8212 1.625C12.4912 1.625 11.4104 2.7058 11.4104 4.03571C11.4104 4.26875 11.4426 4.49174 11.5049 4.70469L7.55128 7.56741C6.96468 6.78996 6.03253 6.28571 4.98186 6.28571C3.20597 6.28571 1.76758 7.72411 1.76758 9.5C1.76758 11.2759 3.20597 12.7143 4.98186 12.7143C6.03253 12.7143 6.96468 12.21 7.55128 11.4326L11.5049 14.2953C11.4426 14.5083 11.4104 14.7333 11.4104 14.9643C11.4104 16.2942 12.4912 17.375 13.8212 17.375C15.1511 17.375 16.2319 16.2942 16.2319 14.9643C16.2319 13.6344 15.1511 12.5536 13.8212 12.5536ZM13.8212 2.99107C14.3977 2.99107 14.8658 3.45915 14.8658 4.03571C14.8658 4.61228 14.3977 5.08036 13.8212 5.08036C13.2446 5.08036 12.7765 4.61228 12.7765 4.03571C12.7765 3.45915 13.2446 2.99107 13.8212 2.99107ZM4.98186 11.2679C4.00753 11.2679 3.21401 10.4743 3.21401 9.5C3.21401 8.52567 4.00753 7.73214 4.98186 7.73214C5.95619 7.73214 6.74972 8.52567 6.74972 9.5C6.74972 10.4743 5.95619 11.2679 4.98186 11.2679ZM13.8212 16.0089C13.2446 16.0089 12.7765 15.5408 12.7765 14.9643C12.7765 14.3877 13.2446 13.9196 13.8212 13.9196C14.3977 13.9196 14.8658 14.3877 14.8658 14.9643C14.8658 15.5408 14.3977 16.0089 13.8212 16.0089Z" fill="#686868"/>
</svg>
