<svg width="19" height="19" viewBox="0 0 19 19" fill="none" xmlns="http://www.w3.org/2000/svg">
<path d="M7.73685 4.52075C8.40567 2.85337 8.74009 2.01968 9.2834 1.90413C9.42626 1.87375 9.57391 1.87375 9.71677 1.90413C10.2601 2.01968 10.5945 2.85337 11.2633 4.52075C11.6437 5.46896 11.8338 5.94307 12.1897 6.26553C12.2895 6.35598 12.3978 6.43653 12.5132 6.50606C12.9245 6.75396 13.4379 6.79994 14.4648 6.8919C16.2031 7.04758 17.0722 7.12542 17.3376 7.62098C17.3926 7.72362 17.43 7.83474 17.4482 7.94974C17.5362 8.50498 16.8973 9.08629 15.6194 10.2489L15.2645 10.5718C14.667 11.1153 14.3683 11.3871 14.1955 11.7263C14.0919 11.9297 14.0224 12.1488 13.9898 12.3748C13.9355 12.7516 14.023 13.1459 14.198 13.9344L14.2605 14.2161C14.5742 15.6302 14.7311 16.3373 14.5353 16.6848C14.3594 16.997 14.0354 17.1968 13.6774 17.2139C13.279 17.2329 12.7175 16.7755 11.5947 15.8605C10.8548 15.2576 10.4849 14.9562 10.0743 14.8385C9.69905 14.7309 9.30111 14.7309 8.92585 14.8385C8.51522 14.9562 8.14532 15.2576 7.40552 15.8605C6.28263 16.7755 5.72118 17.2329 5.32272 17.2139C4.9648 17.1968 4.6408 16.997 4.4649 16.6848C4.26907 16.3373 4.42594 15.6302 4.73969 14.2161L4.8022 13.9344C4.97715 13.1459 5.06462 12.7516 5.01034 12.3748C4.97778 12.1488 4.90828 11.9297 4.80463 11.7263C4.63185 11.3871 4.33313 11.1153 3.73569 10.5718L3.38082 10.2489C2.10291 9.08629 1.46396 8.50498 1.55195 7.94974C1.57018 7.83474 1.60755 7.72362 1.66252 7.62098C1.92794 7.12542 2.79708 7.04758 4.53538 6.8919C5.56224 6.79994 6.07567 6.75396 6.48696 6.50606C6.60232 6.43653 6.71067 6.35598 6.81048 6.26553C7.16632 5.94307 7.3565 5.46896 7.73685 4.52075Z" fill="#F97316" stroke="#F97316" stroke-width="2"/>
</svg>
