<svg width="18" height="19" viewBox="0 0 18 19" fill="none" xmlns="http://www.w3.org/2000/svg">
<path d="M7.2985 4.57528C8.01955 2.7777 8.38008 1.87891 9.00004 1.87891C9.62001 1.87891 9.98054 2.7777 10.7016 4.57528L10.7352 4.65899C11.1425 5.67453 11.3462 6.1823 11.7613 6.49094C12.1764 6.79957 12.7214 6.84837 13.8112 6.94597L14.0082 6.96362C15.7919 7.12336 16.6837 7.20323 16.8745 7.77063C17.0654 8.33803 16.4031 8.9406 15.0784 10.1457L14.6363 10.5479C13.9658 11.158 13.6305 11.463 13.4743 11.8628C13.4451 11.9374 13.4209 12.0138 13.4017 12.0915C13.299 12.5083 13.3972 12.9508 13.5935 13.8358L13.6547 14.1113C14.0155 15.7378 14.196 16.551 13.8809 16.9018C13.7632 17.0329 13.6102 17.1272 13.4402 17.1736C12.9854 17.2977 12.3396 16.7715 11.0481 15.7191C10.2 15.028 9.77595 14.6825 9.28911 14.6048C9.09761 14.5742 8.90248 14.5742 8.71098 14.6048C8.22413 14.6825 7.8001 15.028 6.95202 15.7191C5.66048 16.7715 5.01471 17.2977 4.55986 17.1736C4.3899 17.1272 4.2369 17.0329 4.11917 16.9018C3.80413 16.551 3.98457 15.7378 4.34544 14.1113L4.40656 13.8358C4.60291 12.9508 4.70109 12.5083 4.59838 12.0915C4.57922 12.0138 4.55498 11.9374 4.52583 11.8628C4.36956 11.463 4.03429 11.158 3.36374 10.5479L2.92165 10.1457C1.59703 8.9406 0.934717 8.33803 1.12555 7.77063C1.31638 7.20323 2.20821 7.12336 3.99187 6.96362L4.1889 6.94597C5.27874 6.84837 5.82366 6.79957 6.23877 6.49094C6.65388 6.1823 6.85756 5.67453 7.26492 4.65898L7.2985 4.57528Z" stroke="#F97316" stroke-width="2"/>
</svg>
