<svg width="18" height="19" viewBox="0 0 18 19" fill="none" xmlns="http://www.w3.org/2000/svg">
<path fill-rule="evenodd" clip-rule="evenodd" d="M9.1875 3.5C5.66641 3.5 2.8125 6.35391 2.8125 9.875C2.8125 13.3961 5.66641 16.25 9.1875 16.25C12.7086 16.25 15.5625 13.3961 15.5625 9.875C15.5625 6.35391 12.7086 3.5 9.1875 3.5ZM1.6875 9.875C1.6875 5.73259 5.04509 2.375 9.1875 2.375C13.3299 2.375 16.6875 5.73259 16.6875 9.875C16.6875 14.0174 13.3299 17.375 9.1875 17.375C5.04509 17.375 1.6875 14.0174 1.6875 9.875Z" fill="#F97316"/>
<path fill-rule="evenodd" clip-rule="evenodd" d="M9.49658 6.19702V10.0754L12.5328 11.8866L11.9565 12.8528L8.37158 10.7142V6.19702H9.49658Z" fill="#F97316"/>
</svg>
