<svg width="115" height="139" viewBox="0 0 115 139" fill="none" xmlns="http://www.w3.org/2000/svg">
<path d="M7 15.0104C7 6.72037 11.8831 0 17.9068 0H97.0932C103.117 0 108 6.72037 108 15.0104V123.99C108 132.28 103.117 139 97.0932 139H17.9068C11.8831 139 7 132.28 7 123.99V15.0104Z" fill="#F97316"/>
<path d="M44.3173 53.8168C42.8429 55.9737 40.3636 57.3892 37.5537 57.3892C36.214 57.3892 34.9495 57.0675 33.8333 56.497L44.6749 67.3386C45.6047 63.8385 48.7951 61.2594 52.5879 61.2594C55.3978 61.2594 57.8771 62.675 59.3515 64.8319H81.4655C84.014 64.8319 86.08 66.8979 86.08 69.4464C86.08 71.9949 84.014 74.0608 81.4655 74.0608H59.3515C57.8771 76.2177 55.3978 77.6333 52.5879 77.6333C51.3629 77.6333 50.2007 77.3643 49.1573 76.882L57.3512 85.076H81.4655C84.014 85.076 86.08 87.142 86.08 89.6905C86.08 92.239 84.014 94.3049 81.4655 94.3049H44.3173C42.8429 96.4618 40.3636 97.8774 37.5537 97.8774C36.1672 97.8774 34.8613 97.5328 33.7168 96.9245L56.9482 119.312H96.9463C102.948 119.312 107.813 114.447 107.813 108.446V68.9998L84.2937 45.481L84.2119 45.4938C85.3454 46.3346 86.08 47.6826 86.08 49.2023C86.08 51.7508 84.014 53.8168 81.4655 53.8168H44.3173Z" fill="#F97316"/>
<rect x="32.1948" y="85.0762" width="53.885" height="9.22892" rx="4.61446" fill="#B14900"/>
<rect x="45.7407" y="64.832" width="40.3393" height="9.22892" rx="4.61446" fill="#B14900"/>
<rect x="32.1948" y="44.5881" width="53.885" height="9.22892" rx="4.61446" fill="#B14900"/>
<path d="M44.3174 53.8167C45.2155 52.5028 45.7408 50.9139 45.7408 49.2023C45.7408 47.5752 45.2662 46.0591 44.4478 44.7847L53.7789 53.8167H44.3174Z" fill="#B14900"/>
<path d="M59.3516 74.0611C60.2497 72.7472 60.7749 71.1582 60.7749 69.4466C60.7749 67.9659 60.3819 66.5771 59.6944 65.3787L68.6642 74.0611H59.3516Z" fill="#B14900"/>
<path d="M44.3174 94.3052C45.2155 92.9914 45.7408 91.4024 45.7408 89.6908C45.7408 88.0638 45.2662 86.5476 44.4478 85.2732L53.7789 94.3052H44.3174Z" fill="#B14900"/>
<ellipse cx="37.5536" cy="49.2026" rx="8.18695" ry="8.18694" fill="white"/>
<ellipse cx="52.5878" cy="69.4467" rx="8.18694" ry="8.18695" fill="white"/>
<ellipse cx="37.5536" cy="89.6906" rx="8.18695" ry="8.18695" fill="white"/>
</svg>
